<svg width="75" height="316" viewBox="0 0 75 316" fill="none" xmlns="http://www.w3.org/2000/svg">
<path d="M36.98 315.51C32.19 297.67 29.03 287.27 29.03 260.27L29.02 211.74L28.91 127.33V65.72H6.74C2.76 65.72 0 62.87 0 58.57C0 54.51 2.74 51.51 6.74 51.51C10.89 51.51 13.48 54.57 13.48 58.57V58.78L30.63 54.78C29.3992 49.7168 28.8013 44.5204 28.85 39.31C28.85 28.94 30.91 20.04 33.91 16.22C31.02 15.03 29.18 12.18 29.18 8.36C29.18 3.59 32.49 0 37.18 0C42.12 0 45.18 3.59 45.18 8.36C45.2659 9.98986 44.8586 11.6078 44.0113 13.0027C43.164 14.3977 41.9159 15.5049 40.43 16.18C43.42 19.98 45.51 28.91 45.51 39.31C45.5547 44.3373 45.0042 49.3521 43.87 54.25H67.35C71.35 54.25 74.07 57.1 74.1 61.45C74.1 65.5 71.32 68.5 67.37 68.5C63.22 68.5 60.63 65.45 60.63 61.45C60.6245 61.3567 60.6245 61.2633 60.63 61.17L45.08 64.6V122.03L45.16 216.06V260.27C45.16 287.24 41.76 297.67 36.98 315.51Z" fill="url(#paint0_linear_1_45)"/>
<defs>
<linearGradient id="paint0_linear_1_45" x1="37.06" y1="315.51" x2="37.06" y2="0" gradientUnits="userSpaceOnUse">
<stop stop-color="#EDEDED"/>
<stop offset="0.16" stop-color="#EDEDED"/>
<stop offset="0.29" stop-color="#9D9D9C"/>
<stop offset="0.51" stop-color="#706F6F"/>
<stop offset="0.65" stop-color="#9D9D9C"/>
<stop offset="0.8" stop-color="#EDEDED"/>
<stop offset="1" stop-color="#B4B4B4"/>
</linearGradient>
</defs>
</svg>
